<mxfile host="Electron" modified="2023-09-05T16:00:44.647Z" agent="Mozilla/5.0 (Windows NT 10.0; Win64; x64) AppleWebKit/537.36 (KHTML, like Gecko) draw.io/21.6.8 Chrome/114.0.5735.289 Electron/25.5.0 Safari/537.36" etag="UuGB4Kl8tfo2V7arFpUu" version="21.6.8" type="device">
  <diagram name="Страница — 1" id="sS1giwofmTMbesb4Zg5Q">
    <mxGraphModel dx="1036" dy="614" grid="1" gridSize="10" guides="1" tooltips="1" connect="1" arrows="1" fold="1" page="1" pageScale="1" pageWidth="827" pageHeight="1169" math="0" shadow="0">
      <root>
        <mxCell id="0" />
        <mxCell id="1" parent="0" />
        <mxCell id="EXKjvAga7P47z9tanmxk-28" value="" style="group" vertex="1" connectable="0" parent="1">
          <mxGeometry x="80" y="70" width="770" height="660" as="geometry" />
        </mxCell>
        <mxCell id="EXKjvAga7P47z9tanmxk-26" value="" style="group;fillColor=#008a00;fontColor=#ffffff;strokeColor=#005700;container=0;" vertex="1" connectable="0" parent="EXKjvAga7P47z9tanmxk-28">
          <mxGeometry width="770" height="660" as="geometry" />
        </mxCell>
        <mxCell id="NO2-oqfJaDyp0ZAXSBhh-3" value="Begin" style="rounded=1;whiteSpace=wrap;html=1;container=0;" parent="EXKjvAga7P47z9tanmxk-28" vertex="1">
          <mxGeometry x="160" y="10" width="120" height="60" as="geometry" />
        </mxCell>
        <mxCell id="NO2-oqfJaDyp0ZAXSBhh-4" value="&quot;Введите элементы массива через запятую:&quot;, elements" style="shape=parallelogram;perimeter=parallelogramPerimeter;whiteSpace=wrap;html=1;fixedSize=1;container=0;" parent="EXKjvAga7P47z9tanmxk-28" vertex="1">
          <mxGeometry x="100" y="90" width="240" height="60" as="geometry" />
        </mxCell>
        <mxCell id="NO2-oqfJaDyp0ZAXSBhh-5" value="string[] array = elements.Split(&quot;, &quot;)" style="rounded=0;whiteSpace=wrap;html=1;container=0;" parent="EXKjvAga7P47z9tanmxk-28" vertex="1">
          <mxGeometry x="160" y="170" width="120" height="60" as="geometry" />
        </mxCell>
        <mxCell id="NO2-oqfJaDyp0ZAXSBhh-6" value="" style="endArrow=classic;html=1;rounded=0;exitX=0.5;exitY=1;exitDx=0;exitDy=0;entryX=0.5;entryY=0;entryDx=0;entryDy=0;" parent="EXKjvAga7P47z9tanmxk-28" source="NO2-oqfJaDyp0ZAXSBhh-3" target="NO2-oqfJaDyp0ZAXSBhh-4" edge="1">
          <mxGeometry width="50" height="50" relative="1" as="geometry">
            <mxPoint x="200" y="270" as="sourcePoint" />
            <mxPoint x="250" y="220" as="targetPoint" />
          </mxGeometry>
        </mxCell>
        <mxCell id="NO2-oqfJaDyp0ZAXSBhh-7" value="" style="endArrow=classic;html=1;rounded=0;exitX=0.5;exitY=1;exitDx=0;exitDy=0;entryX=0.5;entryY=0;entryDx=0;entryDy=0;" parent="EXKjvAga7P47z9tanmxk-28" source="NO2-oqfJaDyp0ZAXSBhh-4" target="NO2-oqfJaDyp0ZAXSBhh-5" edge="1">
          <mxGeometry width="50" height="50" relative="1" as="geometry">
            <mxPoint x="230" y="80" as="sourcePoint" />
            <mxPoint x="230" y="100" as="targetPoint" />
          </mxGeometry>
        </mxCell>
        <mxCell id="NO2-oqfJaDyp0ZAXSBhh-15" value="" style="endArrow=classic;html=1;rounded=0;exitX=1;exitY=0.5;exitDx=0;exitDy=0;" parent="EXKjvAga7P47z9tanmxk-28" edge="1">
          <mxGeometry width="50" height="50" relative="1" as="geometry">
            <mxPoint x="620" y="459.5" as="sourcePoint" />
            <mxPoint x="640" y="459.5" as="targetPoint" />
          </mxGeometry>
        </mxCell>
        <mxCell id="NO2-oqfJaDyp0ZAXSBhh-17" value="End" style="rounded=1;whiteSpace=wrap;html=1;container=0;" parent="EXKjvAga7P47z9tanmxk-28" vertex="1">
          <mxGeometry x="640" y="515" width="120" height="60" as="geometry" />
        </mxCell>
        <mxCell id="EXKjvAga7P47z9tanmxk-27" value="" style="endArrow=classic;html=1;rounded=0;entryX=0.5;entryY=0;entryDx=0;entryDy=0;exitX=0.5;exitY=0;exitDx=0;exitDy=0;" edge="1" parent="EXKjvAga7P47z9tanmxk-28" source="NO2-oqfJaDyp0ZAXSBhh-21" target="NO2-oqfJaDyp0ZAXSBhh-17">
          <mxGeometry width="50" height="50" relative="1" as="geometry">
            <mxPoint x="690" y="490" as="sourcePoint" />
            <mxPoint x="470" y="440" as="targetPoint" />
          </mxGeometry>
        </mxCell>
        <mxCell id="NO2-oqfJaDyp0ZAXSBhh-21" value="print(resArray)" style="shape=document;whiteSpace=wrap;html=1;boundedLbl=1;container=0;" parent="EXKjvAga7P47z9tanmxk-28" vertex="1">
          <mxGeometry x="640" y="419.5" width="120" height="80" as="geometry" />
        </mxCell>
        <mxCell id="NO2-oqfJaDyp0ZAXSBhh-22" value="i = 0; i &amp;lt; array.Length; i++" style="shape=hexagon;perimeter=hexagonPerimeter2;whiteSpace=wrap;html=1;fixedSize=1;container=0;" parent="EXKjvAga7P47z9tanmxk-28" vertex="1">
          <mxGeometry x="140" y="330" width="160" height="80" as="geometry" />
        </mxCell>
        <mxCell id="NO2-oqfJaDyp0ZAXSBhh-23" value="array[i].Length &amp;lt;= 3" style="rhombus;whiteSpace=wrap;html=1;container=0;" parent="EXKjvAga7P47z9tanmxk-28" vertex="1">
          <mxGeometry x="160" y="430" width="120" height="110" as="geometry" />
        </mxCell>
        <mxCell id="NO2-oqfJaDyp0ZAXSBhh-24" value="" style="edgeStyle=orthogonalEdgeStyle;rounded=0;orthogonalLoop=1;jettySize=auto;html=1;entryX=0.5;entryY=0;entryDx=0;entryDy=0;" parent="EXKjvAga7P47z9tanmxk-28" source="NO2-oqfJaDyp0ZAXSBhh-22" target="NO2-oqfJaDyp0ZAXSBhh-23" edge="1">
          <mxGeometry relative="1" as="geometry">
            <mxPoint x="220" y="430" as="targetPoint" />
          </mxGeometry>
        </mxCell>
        <mxCell id="NO2-oqfJaDyp0ZAXSBhh-30" value="" style="edgeStyle=orthogonalEdgeStyle;rounded=0;orthogonalLoop=1;jettySize=auto;html=1;" parent="EXKjvAga7P47z9tanmxk-28" source="NO2-oqfJaDyp0ZAXSBhh-28" target="NO2-oqfJaDyp0ZAXSBhh-22" edge="1">
          <mxGeometry relative="1" as="geometry" />
        </mxCell>
        <mxCell id="NO2-oqfJaDyp0ZAXSBhh-28" value="size = 0" style="whiteSpace=wrap;html=1;rounded=0;container=0;" parent="EXKjvAga7P47z9tanmxk-28" vertex="1">
          <mxGeometry x="160" y="250" width="120" height="60" as="geometry" />
        </mxCell>
        <mxCell id="NO2-oqfJaDyp0ZAXSBhh-29" value="" style="edgeStyle=orthogonalEdgeStyle;rounded=0;orthogonalLoop=1;jettySize=auto;html=1;" parent="EXKjvAga7P47z9tanmxk-28" source="NO2-oqfJaDyp0ZAXSBhh-5" target="NO2-oqfJaDyp0ZAXSBhh-28" edge="1">
          <mxGeometry relative="1" as="geometry" />
        </mxCell>
        <mxCell id="NO2-oqfJaDyp0ZAXSBhh-35" value="" style="endArrow=classic;html=1;rounded=0;entryX=0;entryY=0.5;entryDx=0;entryDy=0;exitX=0.5;exitY=0;exitDx=0;exitDy=0;" parent="EXKjvAga7P47z9tanmxk-28" target="NO2-oqfJaDyp0ZAXSBhh-22" edge="1" source="NO2-oqfJaDyp0ZAXSBhh-62">
          <mxGeometry width="50" height="50" relative="1" as="geometry">
            <mxPoint x="60" y="445" as="sourcePoint" />
            <mxPoint x="130" y="375" as="targetPoint" />
            <Array as="points">
              <mxPoint x="80" y="370" />
            </Array>
          </mxGeometry>
        </mxCell>
        <mxCell id="NO2-oqfJaDyp0ZAXSBhh-40" value="yes" style="text;html=1;align=center;verticalAlign=middle;resizable=0;points=[];autosize=1;strokeColor=none;fillColor=none;container=0;" parent="EXKjvAga7P47z9tanmxk-28" vertex="1">
          <mxGeometry x="130" y="457.5" width="40" height="30" as="geometry" />
        </mxCell>
        <mxCell id="NO2-oqfJaDyp0ZAXSBhh-44" value="string[] resArray = new string[size]" style="whiteSpace=wrap;html=1;container=0;" parent="EXKjvAga7P47z9tanmxk-28" vertex="1">
          <mxGeometry x="480" y="339.5" width="120" height="60" as="geometry" />
        </mxCell>
        <mxCell id="NO2-oqfJaDyp0ZAXSBhh-45" value="" style="edgeStyle=orthogonalEdgeStyle;rounded=0;orthogonalLoop=1;jettySize=auto;html=1;exitX=1;exitY=0.5;exitDx=0;exitDy=0;entryX=0;entryY=0.5;entryDx=0;entryDy=0;" parent="EXKjvAga7P47z9tanmxk-28" source="NO2-oqfJaDyp0ZAXSBhh-22" target="NO2-oqfJaDyp0ZAXSBhh-44" edge="1">
          <mxGeometry relative="1" as="geometry">
            <mxPoint x="360" y="370" as="sourcePoint" />
            <mxPoint x="340" y="370" as="targetPoint" />
          </mxGeometry>
        </mxCell>
        <mxCell id="NO2-oqfJaDyp0ZAXSBhh-50" value="" style="edgeStyle=orthogonalEdgeStyle;rounded=0;orthogonalLoop=1;jettySize=auto;html=1;" parent="EXKjvAga7P47z9tanmxk-28" edge="1">
          <mxGeometry relative="1" as="geometry">
            <mxPoint x="540" y="399.5" as="sourcePoint" />
            <mxPoint x="540" y="419.5" as="targetPoint" />
          </mxGeometry>
        </mxCell>
        <mxCell id="NO2-oqfJaDyp0ZAXSBhh-55" value="i = 0; i &amp;lt; array.Length; i++" style="shape=hexagon;perimeter=hexagonPerimeter2;whiteSpace=wrap;html=1;fixedSize=1;container=0;" parent="EXKjvAga7P47z9tanmxk-28" vertex="1">
          <mxGeometry x="460" y="419.5" width="160" height="80" as="geometry" />
        </mxCell>
        <mxCell id="NO2-oqfJaDyp0ZAXSBhh-62" value="size++" style="whiteSpace=wrap;html=1;container=0;" parent="EXKjvAga7P47z9tanmxk-28" vertex="1">
          <mxGeometry x="30" y="457.5" width="100" height="55" as="geometry" />
        </mxCell>
        <mxCell id="NO2-oqfJaDyp0ZAXSBhh-33" value="" style="edgeStyle=orthogonalEdgeStyle;rounded=0;orthogonalLoop=1;jettySize=auto;html=1;entryX=1;entryY=0.5;entryDx=0;entryDy=0;" parent="EXKjvAga7P47z9tanmxk-28" source="NO2-oqfJaDyp0ZAXSBhh-23" target="NO2-oqfJaDyp0ZAXSBhh-62" edge="1">
          <mxGeometry relative="1" as="geometry">
            <mxPoint x="120" y="475" as="targetPoint" />
          </mxGeometry>
        </mxCell>
        <mxCell id="EXKjvAga7P47z9tanmxk-2" style="edgeStyle=orthogonalEdgeStyle;rounded=0;orthogonalLoop=1;jettySize=auto;html=1;entryX=1;entryY=0.5;entryDx=0;entryDy=0;" edge="1" parent="EXKjvAga7P47z9tanmxk-28" source="NO2-oqfJaDyp0ZAXSBhh-23" target="NO2-oqfJaDyp0ZAXSBhh-62">
          <mxGeometry relative="1" as="geometry" />
        </mxCell>
        <mxCell id="EXKjvAga7P47z9tanmxk-3" value="" style="edgeStyle=orthogonalEdgeStyle;rounded=0;orthogonalLoop=1;jettySize=auto;html=1;exitX=0;exitY=0.5;exitDx=0;exitDy=0;" edge="1" parent="EXKjvAga7P47z9tanmxk-28" source="NO2-oqfJaDyp0ZAXSBhh-23" target="NO2-oqfJaDyp0ZAXSBhh-62">
          <mxGeometry relative="1" as="geometry" />
        </mxCell>
        <mxCell id="EXKjvAga7P47z9tanmxk-1" value="" style="edgeStyle=orthogonalEdgeStyle;rounded=0;orthogonalLoop=1;jettySize=auto;html=1;entryX=0;entryY=0.5;entryDx=0;entryDy=0;" edge="1" parent="EXKjvAga7P47z9tanmxk-28" source="NO2-oqfJaDyp0ZAXSBhh-23" target="NO2-oqfJaDyp0ZAXSBhh-22">
          <mxGeometry relative="1" as="geometry">
            <mxPoint x="150" y="555" as="targetPoint" />
            <Array as="points">
              <mxPoint x="220" y="560" />
              <mxPoint x="10" y="560" />
              <mxPoint x="10" y="370" />
            </Array>
            <mxPoint x="209" y="530" as="sourcePoint" />
          </mxGeometry>
        </mxCell>
        <mxCell id="EXKjvAga7P47z9tanmxk-4" value="no" style="text;html=1;align=center;verticalAlign=middle;resizable=0;points=[];autosize=1;strokeColor=none;fillColor=none;container=0;" vertex="1" parent="EXKjvAga7P47z9tanmxk-28">
          <mxGeometry x="130" y="530" width="40" height="30" as="geometry" />
        </mxCell>
        <mxCell id="EXKjvAga7P47z9tanmxk-14" value="" style="edgeStyle=orthogonalEdgeStyle;rounded=0;orthogonalLoop=1;jettySize=auto;html=1;" edge="1" parent="EXKjvAga7P47z9tanmxk-28" target="EXKjvAga7P47z9tanmxk-18" source="NO2-oqfJaDyp0ZAXSBhh-55">
          <mxGeometry relative="1" as="geometry">
            <mxPoint x="540" y="520" as="targetPoint" />
            <mxPoint x="540" y="500" as="sourcePoint" />
          </mxGeometry>
        </mxCell>
        <mxCell id="EXKjvAga7P47z9tanmxk-18" value="array[i].Length &amp;lt;= 3" style="rhombus;whiteSpace=wrap;html=1;container=0;" vertex="1" parent="EXKjvAga7P47z9tanmxk-28">
          <mxGeometry x="480" y="520" width="120" height="110" as="geometry" />
        </mxCell>
        <mxCell id="EXKjvAga7P47z9tanmxk-19" value="" style="endArrow=classic;html=1;rounded=0;entryX=0;entryY=0.5;entryDx=0;entryDy=0;exitX=0.5;exitY=0;exitDx=0;exitDy=0;" edge="1" parent="EXKjvAga7P47z9tanmxk-28" source="EXKjvAga7P47z9tanmxk-21">
          <mxGeometry width="50" height="50" relative="1" as="geometry">
            <mxPoint x="380" y="535" as="sourcePoint" />
            <mxPoint x="460" y="460" as="targetPoint" />
            <Array as="points">
              <mxPoint x="400" y="460" />
            </Array>
          </mxGeometry>
        </mxCell>
        <mxCell id="EXKjvAga7P47z9tanmxk-20" value="yes" style="text;html=1;align=center;verticalAlign=middle;resizable=0;points=[];autosize=1;strokeColor=none;fillColor=none;container=0;" vertex="1" parent="EXKjvAga7P47z9tanmxk-28">
          <mxGeometry x="450" y="547.5" width="40" height="30" as="geometry" />
        </mxCell>
        <mxCell id="EXKjvAga7P47z9tanmxk-21" value="size++" style="whiteSpace=wrap;html=1;container=0;" vertex="1" parent="EXKjvAga7P47z9tanmxk-28">
          <mxGeometry x="350" y="547.5" width="100" height="55" as="geometry" />
        </mxCell>
        <mxCell id="EXKjvAga7P47z9tanmxk-15" value="" style="edgeStyle=orthogonalEdgeStyle;rounded=0;orthogonalLoop=1;jettySize=auto;html=1;entryX=1;entryY=0.5;entryDx=0;entryDy=0;" edge="1" parent="EXKjvAga7P47z9tanmxk-28" source="EXKjvAga7P47z9tanmxk-18" target="EXKjvAga7P47z9tanmxk-21">
          <mxGeometry relative="1" as="geometry">
            <mxPoint x="440" y="565" as="targetPoint" />
          </mxGeometry>
        </mxCell>
        <mxCell id="EXKjvAga7P47z9tanmxk-16" style="edgeStyle=orthogonalEdgeStyle;rounded=0;orthogonalLoop=1;jettySize=auto;html=1;entryX=1;entryY=0.5;entryDx=0;entryDy=0;" edge="1" parent="EXKjvAga7P47z9tanmxk-28" source="EXKjvAga7P47z9tanmxk-18" target="EXKjvAga7P47z9tanmxk-21">
          <mxGeometry relative="1" as="geometry" />
        </mxCell>
        <mxCell id="EXKjvAga7P47z9tanmxk-17" value="" style="edgeStyle=orthogonalEdgeStyle;rounded=0;orthogonalLoop=1;jettySize=auto;html=1;exitX=0;exitY=0.5;exitDx=0;exitDy=0;" edge="1" parent="EXKjvAga7P47z9tanmxk-28" source="EXKjvAga7P47z9tanmxk-18" target="EXKjvAga7P47z9tanmxk-21">
          <mxGeometry relative="1" as="geometry" />
        </mxCell>
        <mxCell id="EXKjvAga7P47z9tanmxk-22" value="" style="edgeStyle=orthogonalEdgeStyle;rounded=0;orthogonalLoop=1;jettySize=auto;html=1;" edge="1" parent="EXKjvAga7P47z9tanmxk-28" source="EXKjvAga7P47z9tanmxk-18" target="NO2-oqfJaDyp0ZAXSBhh-55">
          <mxGeometry relative="1" as="geometry">
            <mxPoint x="460" y="460" as="targetPoint" />
            <Array as="points">
              <mxPoint x="540" y="650" />
              <mxPoint x="330" y="650" />
              <mxPoint x="330" y="460" />
            </Array>
            <mxPoint x="529" y="620" as="sourcePoint" />
          </mxGeometry>
        </mxCell>
        <mxCell id="EXKjvAga7P47z9tanmxk-23" value="no" style="text;html=1;align=center;verticalAlign=middle;resizable=0;points=[];autosize=1;strokeColor=none;fillColor=none;container=0;" vertex="1" parent="EXKjvAga7P47z9tanmxk-28">
          <mxGeometry x="450" y="620" width="40" height="30" as="geometry" />
        </mxCell>
      </root>
    </mxGraphModel>
  </diagram>
</mxfile>
